# xmcd
#
# Track frame offsets:
#	225
#	34620
#	76285
#	104755
#	136542
#	166557
#	199872
#	238370
#	282727
#	303622
#
# Disc length: 4435 seconds
#
# Revision: 0
# Processed by: cddbd v1.5.1PL2 Copyright (c) Steve Scherf et al.
# Submitted via: EasyCDDAExtractor 9.0.2.1
#
DISCID=8911500a
DTITLE=Various Artist - Trance Club Volume 1 (Exsclusive Edition)
DYEAR=1996
DGENRE=Trance
TTITLE0=Interrupt - Upside Down
TTITLE1=Commander Tom - Are Am Eye?
TTITLE2=Dynamic Maniax - Calling Middle Earth
TTITLE3=Pro-active - Back To Atlantis (Rave Version)
TTITLE4=Brainvibe II - It's Hot (Chill'N'Force Mix)
TTITLE5=De Donatis II - The Virus (De Tune Remix)
TTITLE6=Future Funk - Dark Side Of The Moon
TTITLE7=Planet Soul - Set U Free
TTITLE8=Al Faris - House Freund
TTITLE9=Reysan Kkan - Shi-Du (Legend B Remix)
EXTD=
EXTT0=
EXTT1=
EXTT2=
EXTT3=
EXTT4=
EXTT5=
EXTT6=
EXTT7=
EXTT8=
EXTT9=
PLAYORDER=
